# Blender v2.79 (sub 0) OBJ File: ''
# www.blender.org
mtllib cube.mtl
o Cube_Cube.001
v -1.224945 -0.223171 0.057991
v -0.071428 0.329626 1.595461
v -1.533081 1.698707 -0.401834
v -0.379565 2.251504 1.135636
v 0.379565 -0.251504 -1.135636
v 1.533081 0.301293 0.401834
v 0.071428 1.670374 -1.595461
v 1.224945 2.223171 -0.057991
vt 0.375000 0.000000
vt 0.625000 0.000000
vt 0.625000 0.250000
vt 0.375000 0.250000
vt 0.625000 0.500000
vt 0.375000 0.500000
vt 0.625000 0.750000
vt 0.375000 0.750000
vt 0.625000 1.000000
vt 0.375000 1.000000
vt 0.125000 0.500000
vt 0.125000 0.750000
vt 0.875000 0.500000
vt 0.875000 0.750000
vn -0.8023 0.0142 0.5968
vn -0.1541 0.9609 -0.2299
vn 0.8023 -0.0142 -0.5968
vn 0.1541 -0.9609 0.2299
vn -0.5768 -0.2764 -0.7687
vn 0.5768 0.2764 0.7687
usemtl None
s off
f 1/1/1 2/2/1 4/3/1 3/4/1
f 3/4/2 4/3/2 8/5/2 7/6/2
f 7/6/3 8/5/3 6/7/3 5/8/3
f 5/8/4 6/7/4 2/9/4 1/10/4
f 3/11/5 7/6/5 5/8/5 1/12/5
f 8/5/6 4/13/6 2/14/6 6/7/6
